G75*
%MOIN*%
%OFA0B0*%
%FSLAX24Y24*%
%IPPOS*%
%LPD*%
%AMOC8*
5,1,8,0,0,1.08239X$1,22.5*
%
%ADD10C,0.1330*%
%ADD11C,0.1288*%
%ADD12C,0.0595*%
%ADD13R,0.0552X0.0395*%
%ADD14C,0.0634*%
%ADD15C,0.0600*%
%ADD16C,0.1080*%
%ADD17C,0.0680*%
%ADD18R,0.1143X0.1084*%
%ADD19R,0.1084X0.1143*%
%ADD20C,0.0476*%
D10*
X005760Y020360D03*
X007760Y020360D03*
X007760Y024960D03*
X005760Y024960D03*
D11*
X005760Y029160D03*
X007760Y029160D03*
D12*
X016860Y033160D03*
X017860Y033160D03*
X018860Y033160D03*
X019860Y033160D03*
X020860Y033160D03*
X021860Y033160D03*
X021860Y034160D03*
X020860Y034160D03*
X019860Y034160D03*
X018860Y034160D03*
X017860Y034160D03*
X016860Y034160D03*
X023860Y034160D03*
X024860Y034160D03*
X025860Y034160D03*
X026860Y034160D03*
X027860Y034160D03*
X028860Y034160D03*
X029860Y034160D03*
X030860Y034160D03*
X030860Y033160D03*
X029860Y033160D03*
X028860Y033160D03*
X027860Y033160D03*
X026860Y033160D03*
X025860Y033160D03*
X024860Y033160D03*
X023860Y033160D03*
X023860Y016160D03*
X023860Y015160D03*
X022860Y015160D03*
X022860Y016160D03*
X021860Y016160D03*
X021860Y015160D03*
X020860Y015160D03*
X020860Y016160D03*
X019860Y016160D03*
X019860Y015160D03*
X018860Y015160D03*
X017860Y015160D03*
X017860Y016160D03*
X018860Y016160D03*
X016860Y016160D03*
X016860Y015160D03*
X025360Y015160D03*
X025360Y016160D03*
X026360Y016160D03*
X026360Y015160D03*
X027360Y015160D03*
X027360Y016160D03*
X028360Y016160D03*
X028360Y015160D03*
X029360Y015160D03*
X029360Y016160D03*
X030360Y016160D03*
X031360Y016160D03*
X031360Y015160D03*
X030360Y015160D03*
X032360Y015160D03*
X032360Y016160D03*
X033360Y016160D03*
X033360Y015160D03*
X034360Y015160D03*
X034360Y016160D03*
D13*
X026960Y017806D03*
X026960Y018514D03*
X024760Y018514D03*
X024760Y017806D03*
X021960Y017806D03*
X021960Y018514D03*
X017360Y018514D03*
X017360Y017806D03*
X015360Y017806D03*
X015360Y018514D03*
X015360Y020606D03*
X015360Y021314D03*
X017360Y021314D03*
X017360Y020606D03*
X012160Y016914D03*
X012160Y016206D03*
X018760Y029606D03*
X018760Y030314D03*
X020760Y030314D03*
X020760Y029606D03*
X028760Y029606D03*
X028760Y030314D03*
D14*
X010260Y015137D02*
X010260Y014583D01*
X009260Y014583D02*
X009260Y015137D01*
X008260Y015137D02*
X008260Y014583D01*
X007260Y014583D02*
X007260Y015137D01*
X007760Y013137D02*
X007760Y012583D01*
X008760Y012583D02*
X008760Y013137D01*
X009760Y013137D02*
X009760Y012583D01*
D15*
X029760Y022900D02*
X029760Y023420D01*
X030760Y023420D02*
X030760Y022900D01*
X031760Y022900D02*
X031760Y023420D01*
X032760Y023420D02*
X032760Y022900D01*
X033760Y022900D02*
X033760Y023420D01*
X034760Y023420D02*
X034760Y022900D01*
X035760Y022900D02*
X035760Y023420D01*
X035760Y025900D02*
X035760Y026420D01*
X034760Y026420D02*
X034760Y025900D01*
X033760Y025900D02*
X033760Y026420D01*
X032760Y026420D02*
X032760Y025900D01*
X031760Y025900D02*
X031760Y026420D01*
X030760Y026420D02*
X030760Y025900D01*
X029760Y025900D02*
X029760Y026420D01*
D16*
X013560Y020860D03*
X013560Y017860D03*
D17*
X013560Y013060D02*
X013560Y012460D01*
X014560Y012460D02*
X014560Y013060D01*
X012560Y013060D02*
X012560Y012460D01*
X017560Y012460D02*
X017560Y013060D01*
X018560Y013060D02*
X018560Y012460D01*
X019560Y012460D02*
X019560Y013060D01*
X022560Y013060D02*
X022560Y012460D01*
X023560Y012460D02*
X023560Y013060D01*
X024560Y013060D02*
X024560Y012460D01*
X027760Y012460D02*
X027760Y013060D01*
X028760Y013060D02*
X028760Y012460D01*
X029760Y012460D02*
X029760Y013060D01*
X038860Y015660D02*
X039460Y015660D01*
X039460Y016660D02*
X038860Y016660D01*
X038860Y018560D02*
X039460Y018560D01*
X039460Y019560D02*
X038860Y019560D01*
X038860Y020560D02*
X039460Y020560D01*
X040860Y020560D02*
X041460Y020560D01*
X041460Y019560D02*
X040860Y019560D01*
X040860Y018560D02*
X041460Y018560D01*
X041460Y022560D02*
X040860Y022560D01*
X040860Y023560D02*
X041460Y023560D01*
X041460Y024560D02*
X040860Y024560D01*
X040860Y025560D02*
X041460Y025560D01*
X041460Y026560D02*
X040860Y026560D01*
X039460Y026560D02*
X038860Y026560D01*
X038860Y025560D02*
X039460Y025560D01*
X039460Y024560D02*
X038860Y024560D01*
X038860Y023560D02*
X039460Y023560D01*
X039460Y022560D02*
X038860Y022560D01*
X038860Y028660D02*
X039460Y028660D01*
X039460Y029660D02*
X038860Y029660D01*
X038860Y030660D02*
X039460Y030660D01*
X039460Y031660D02*
X038860Y031660D01*
X038860Y032660D02*
X039460Y032660D01*
X039460Y033660D02*
X038860Y033660D01*
X040860Y030660D02*
X041460Y030660D01*
X041460Y029660D02*
X040860Y029660D01*
X040860Y028660D02*
X041460Y028660D01*
X019360Y036060D02*
X019360Y036660D01*
X018360Y036660D02*
X018360Y036060D01*
X017360Y036060D02*
X017360Y036660D01*
X014560Y036660D02*
X014560Y036060D01*
X013560Y036060D02*
X013560Y036660D01*
X012560Y036660D02*
X012560Y036060D01*
D18*
X005760Y018408D03*
X005760Y015912D03*
D19*
X032112Y012360D03*
X034608Y012360D03*
D20*
X016160Y012360D03*
X017360Y014160D03*
X017760Y016960D03*
X020360Y017560D03*
X021160Y018960D03*
X022760Y019160D03*
X023560Y020160D03*
X024760Y019360D03*
X024960Y020160D03*
X026560Y021560D03*
X028360Y023160D03*
X029160Y023760D03*
X028560Y024360D03*
X027160Y023960D03*
X025760Y025760D03*
X024560Y025360D03*
X023160Y025560D03*
X023760Y028760D03*
X024560Y029160D03*
X026960Y031360D03*
X028760Y031360D03*
X033960Y034360D03*
X036560Y031960D03*
X040560Y033360D03*
X040560Y034360D03*
X038760Y034960D03*
X037360Y035160D03*
X041560Y036960D03*
X043160Y032360D03*
X038360Y028160D03*
X040160Y027160D03*
X041160Y027760D03*
X040160Y024160D03*
X038560Y021560D03*
X034560Y021960D03*
X032360Y020560D03*
X030760Y019760D03*
X031160Y019160D03*
X030560Y018760D03*
X029360Y017760D03*
X027360Y016960D03*
X026360Y017760D03*
X025360Y017760D03*
X023960Y017760D03*
X022760Y017760D03*
X020960Y020360D03*
X019360Y021560D03*
X016560Y020360D03*
X014360Y018760D03*
X012160Y019560D03*
X008160Y018960D03*
X008360Y017760D03*
X007360Y017560D03*
X012160Y014360D03*
X014560Y015160D03*
X013960Y016360D03*
X005960Y013160D03*
X021760Y013960D03*
X025560Y012760D03*
X025960Y012360D03*
X026160Y011760D03*
X035560Y015960D03*
X036560Y014560D03*
X038760Y012760D03*
X042760Y015160D03*
X041360Y017560D03*
X032360Y024360D03*
X029160Y021960D03*
X029560Y021360D03*
X023760Y022160D03*
X028360Y027360D03*
X021360Y032160D03*
X023360Y035160D03*
X023760Y035960D03*
X022560Y035960D03*
X014760Y034160D03*
X017760Y028960D03*
X007560Y036760D03*
M02*
