G75*
%MOIN*%
%OFA0B0*%
%FSLAX24Y24*%
%IPPOS*%
%LPD*%
%AMOC8*
5,1,8,0,0,1.08239X$1,22.5*
%
%ADD10R,0.0236X0.0866*%
%ADD11R,0.0315X0.0472*%
%ADD12R,0.0472X0.0315*%
%ADD13R,0.0630X0.1181*%
%ADD14R,0.2283X0.2441*%
%ADD15R,0.0157X0.0276*%
%ADD16R,0.1004X0.1063*%
D10*
X022910Y022949D03*
X023410Y022949D03*
X023910Y022949D03*
X024410Y022949D03*
X024910Y022949D03*
X025410Y022949D03*
X025910Y022949D03*
X026410Y022949D03*
X026910Y022949D03*
X027410Y022949D03*
X027410Y026571D03*
X026910Y026571D03*
X026410Y026571D03*
X025910Y026571D03*
X025410Y026571D03*
X024910Y026571D03*
X024410Y026571D03*
X023910Y026571D03*
X023410Y026571D03*
X022910Y026571D03*
D11*
X023806Y029960D03*
X024514Y029960D03*
X007914Y016560D03*
X007206Y016560D03*
D12*
X012160Y015006D03*
X012160Y015714D03*
X013760Y015714D03*
X013760Y015006D03*
X015360Y015006D03*
X015360Y015714D03*
X007360Y022806D03*
X007360Y023514D03*
X027360Y021914D03*
X027360Y021206D03*
X033760Y018514D03*
X033760Y017806D03*
X035960Y017806D03*
X035960Y018514D03*
X035360Y029606D03*
X035360Y030314D03*
D13*
X021866Y022760D03*
X020054Y022760D03*
X016266Y022760D03*
X014454Y022760D03*
X012266Y022760D03*
X010454Y022760D03*
X010654Y028160D03*
X012466Y028160D03*
X014654Y028160D03*
X016466Y028160D03*
D14*
X015360Y025595D03*
X011360Y025595D03*
X011560Y030995D03*
X015560Y030995D03*
X020960Y025595D03*
D15*
X030904Y021095D03*
X031160Y021095D03*
X031416Y021095D03*
X031416Y020425D03*
X030904Y020425D03*
X034804Y020425D03*
X035316Y020425D03*
X035316Y021095D03*
X035060Y021095D03*
X034804Y021095D03*
D16*
X034912Y012560D03*
X037408Y012560D03*
X009008Y033560D03*
X006512Y033560D03*
M02*
