G75*
%MOIN*%
%OFA0B0*%
%FSLAX24Y24*%
%IPPOS*%
%LPD*%
%AMOC8*
5,1,8,0,0,1.08239X$1,22.5*
%
%ADD10C,0.0060*%
%ADD11C,0.0020*%
%ADD12C,0.0050*%
%ADD13C,0.0040*%
%ADD14C,0.0080*%
%ADD15R,0.0200X0.0200*%
%ADD16C,0.0200*%
%ADD17R,0.4200X0.0300*%
%ADD18R,0.0750X0.0200*%
%ADD19R,0.0300X0.0200*%
D10*
X005390Y010590D02*
X005710Y010590D01*
X005817Y010697D01*
X005817Y011124D01*
X005710Y011231D01*
X005390Y011231D01*
X005390Y010590D01*
X006035Y010697D02*
X006141Y010590D01*
X006355Y010590D01*
X006462Y010697D01*
X006679Y010483D02*
X007106Y010483D01*
X007324Y010590D02*
X007644Y010590D01*
X007751Y010697D01*
X007751Y010804D01*
X007644Y010910D01*
X007324Y010910D01*
X007644Y010910D02*
X007751Y011017D01*
X007751Y011124D01*
X007644Y011231D01*
X007324Y011231D01*
X007324Y010590D01*
X007968Y010697D02*
X007968Y011124D01*
X008075Y011231D01*
X008288Y011231D01*
X008395Y011124D01*
X008395Y010697D01*
X008288Y010590D01*
X008075Y010590D01*
X007968Y010697D01*
X008613Y010697D02*
X008613Y011124D01*
X008720Y011231D01*
X008933Y011231D01*
X009040Y011124D01*
X009040Y010697D01*
X008933Y010590D01*
X008720Y010590D01*
X008613Y010697D01*
X009257Y010697D02*
X009364Y010590D01*
X009578Y010590D01*
X009684Y010697D01*
X009684Y010804D01*
X009578Y010910D01*
X009364Y010910D01*
X009257Y011017D01*
X009257Y011124D01*
X009364Y011231D01*
X009578Y011231D01*
X009684Y011124D01*
X009902Y011231D02*
X010329Y011231D01*
X010115Y011231D02*
X010115Y010590D01*
X011190Y010590D02*
X011190Y011231D01*
X011404Y011017D01*
X011617Y011231D01*
X011617Y010590D01*
X011835Y010697D02*
X011941Y010590D01*
X012155Y010590D01*
X012262Y010697D01*
X012262Y011124D01*
X012155Y011231D01*
X011941Y011231D01*
X011835Y011124D01*
X011835Y010697D01*
X012479Y010697D02*
X012586Y010590D01*
X012799Y010590D01*
X012906Y010697D01*
X012906Y010804D01*
X012799Y010910D01*
X012586Y010910D01*
X012479Y011017D01*
X012479Y011124D01*
X012586Y011231D01*
X012799Y011231D01*
X012906Y011124D01*
X013124Y010483D02*
X013551Y010483D01*
X013768Y010590D02*
X013768Y011231D01*
X013768Y010910D02*
X014195Y010910D01*
X014413Y011017D02*
X014520Y010910D01*
X014733Y010910D01*
X014840Y010804D01*
X014840Y010697D01*
X014733Y010590D01*
X014520Y010590D01*
X014413Y010697D01*
X014195Y010590D02*
X014195Y011231D01*
X014413Y011124D02*
X014520Y011231D01*
X014733Y011231D01*
X014840Y011124D01*
X015057Y011124D02*
X015164Y011231D01*
X015378Y011231D01*
X015484Y011124D01*
X015484Y011017D01*
X015057Y010590D01*
X015484Y010590D01*
X016390Y010590D02*
X016390Y011231D01*
X016604Y011017D01*
X016817Y011231D01*
X016817Y010590D01*
X017035Y010697D02*
X017141Y010590D01*
X017355Y010590D01*
X017462Y010697D01*
X017462Y011124D01*
X017355Y011231D01*
X017141Y011231D01*
X017035Y011124D01*
X017035Y010697D01*
X017679Y010697D02*
X017786Y010590D01*
X017999Y010590D01*
X018106Y010697D01*
X018106Y010804D01*
X017999Y010910D01*
X017786Y010910D01*
X017679Y011017D01*
X017679Y011124D01*
X017786Y011231D01*
X017999Y011231D01*
X018106Y011124D01*
X018324Y010483D02*
X018751Y010483D01*
X018968Y010590D02*
X019395Y010590D01*
X019613Y010697D02*
X019720Y010590D01*
X019933Y010590D01*
X020040Y010697D01*
X020040Y010804D01*
X019933Y010910D01*
X019720Y010910D01*
X019613Y011017D01*
X019613Y011124D01*
X019720Y011231D01*
X019933Y011231D01*
X020040Y011124D01*
X020257Y011124D02*
X020364Y011231D01*
X020578Y011231D01*
X020684Y011124D01*
X020684Y011017D01*
X020257Y010590D01*
X020684Y010590D01*
X021790Y010697D02*
X021897Y010590D01*
X022110Y010590D01*
X022217Y010697D01*
X022217Y010910D01*
X022110Y011017D01*
X022004Y011017D01*
X021790Y010910D01*
X021790Y011231D01*
X022217Y011231D01*
X022435Y011231D02*
X022435Y010804D01*
X022648Y010590D01*
X022862Y010804D01*
X022862Y011231D01*
X023724Y011231D02*
X024044Y011231D01*
X024151Y011124D01*
X024151Y010910D01*
X024044Y010804D01*
X023724Y010804D01*
X023937Y010804D02*
X024151Y010590D01*
X024368Y010590D02*
X024795Y010590D01*
X025013Y010697D02*
X025013Y011124D01*
X025120Y011231D01*
X025333Y011231D01*
X025440Y011124D01*
X025440Y010910D02*
X025226Y010910D01*
X025440Y010910D02*
X025440Y010697D01*
X025333Y010590D01*
X025120Y010590D01*
X025013Y010697D01*
X024582Y010910D02*
X024368Y010910D01*
X024368Y010590D02*
X024368Y011231D01*
X024795Y011231D01*
X023724Y011231D02*
X023724Y010590D01*
X023506Y010483D02*
X023079Y010483D01*
X020560Y012210D02*
X020510Y013360D01*
X020410Y013460D01*
X016710Y013460D01*
X016610Y013360D01*
X016560Y012210D01*
X015560Y012210D02*
X015510Y013360D01*
X015410Y013460D01*
X011710Y013460D01*
X011610Y013360D01*
X011560Y012210D01*
X014413Y011124D02*
X014413Y011017D01*
X018968Y011231D02*
X018968Y010590D01*
X015596Y015242D02*
X015596Y015478D01*
X015124Y015478D02*
X015124Y015242D01*
X013996Y015242D02*
X013996Y015478D01*
X013524Y015478D02*
X013524Y015242D01*
X012396Y015242D02*
X012396Y015478D01*
X011924Y015478D02*
X011924Y015242D01*
X007678Y016324D02*
X007442Y016324D01*
X007442Y016796D02*
X007678Y016796D01*
X006355Y011231D02*
X006141Y011231D01*
X006035Y011124D01*
X006035Y010697D01*
X006462Y011124D02*
X006355Y011231D01*
X007124Y023042D02*
X007124Y023278D01*
X007596Y023278D02*
X007596Y023042D01*
X021790Y024497D02*
X021897Y024390D01*
X022110Y024390D01*
X022217Y024497D01*
X022217Y024710D01*
X022004Y024710D01*
X022217Y024924D02*
X022110Y025031D01*
X021897Y025031D01*
X021790Y024924D01*
X021790Y024497D01*
X022435Y024390D02*
X022435Y024817D01*
X022648Y025031D01*
X022862Y024817D01*
X022862Y024390D01*
X022862Y024710D02*
X022435Y024710D01*
X023079Y025031D02*
X023506Y025031D01*
X023293Y025031D02*
X023293Y024390D01*
X023724Y024390D02*
X024151Y024390D01*
X024368Y024283D02*
X024795Y024283D01*
X025013Y024390D02*
X025333Y024390D01*
X025440Y024497D01*
X025440Y024924D01*
X025333Y025031D01*
X025013Y025031D01*
X025013Y024390D01*
X025657Y024390D02*
X025657Y025031D01*
X025978Y025031D01*
X026084Y024924D01*
X026084Y024710D01*
X025978Y024604D01*
X025657Y024604D01*
X025871Y024604D02*
X026084Y024390D01*
X026302Y024390D02*
X026515Y024390D01*
X026409Y024390D02*
X026409Y025031D01*
X026515Y025031D02*
X026302Y025031D01*
X026732Y025031D02*
X026732Y024604D01*
X026945Y024390D01*
X027159Y024604D01*
X027159Y025031D01*
X027376Y025031D02*
X027376Y024390D01*
X027803Y024390D01*
X028021Y024390D02*
X028021Y025031D01*
X028341Y025031D01*
X028448Y024924D01*
X028448Y024710D01*
X028341Y024604D01*
X028021Y024604D01*
X028234Y024604D02*
X028448Y024390D01*
X027803Y025031D02*
X027376Y025031D01*
X027376Y024710D02*
X027590Y024710D01*
X029260Y025810D02*
X029260Y023510D01*
X036260Y023510D01*
X036260Y024260D01*
X036221Y024262D01*
X036182Y024268D01*
X036144Y024277D01*
X036107Y024290D01*
X036071Y024307D01*
X036038Y024327D01*
X036006Y024351D01*
X035977Y024377D01*
X035951Y024406D01*
X035927Y024438D01*
X035907Y024471D01*
X035890Y024507D01*
X035877Y024544D01*
X035868Y024582D01*
X035862Y024621D01*
X035860Y024660D01*
X035862Y024699D01*
X035868Y024738D01*
X035877Y024776D01*
X035890Y024813D01*
X035907Y024849D01*
X035927Y024882D01*
X035951Y024914D01*
X035977Y024943D01*
X036006Y024969D01*
X036038Y024993D01*
X036071Y025013D01*
X036107Y025030D01*
X036144Y025043D01*
X036182Y025052D01*
X036221Y025058D01*
X036260Y025060D01*
X036260Y025810D01*
X029260Y025810D01*
X031390Y024910D02*
X031817Y024910D01*
X032035Y024697D02*
X032035Y025124D01*
X032141Y025231D01*
X032355Y025231D01*
X032462Y025124D01*
X032462Y024910D02*
X032248Y024910D01*
X032462Y024910D02*
X032462Y024697D01*
X032355Y024590D01*
X032141Y024590D01*
X032035Y024697D01*
X031710Y024590D02*
X031710Y025231D01*
X031390Y024910D01*
X032679Y024483D02*
X033106Y024483D01*
X033324Y024590D02*
X033324Y025017D01*
X033537Y025231D01*
X033751Y025017D01*
X033751Y024590D01*
X033968Y024590D02*
X033968Y025231D01*
X034395Y024590D01*
X034395Y025231D01*
X034613Y025231D02*
X034933Y025231D01*
X035040Y025124D01*
X035040Y024697D01*
X034933Y024590D01*
X034613Y024590D01*
X034613Y025231D01*
X033751Y024910D02*
X033324Y024910D01*
X037489Y024951D02*
X037489Y024524D01*
X038130Y024524D01*
X038130Y024951D01*
X038130Y025168D02*
X037489Y025168D01*
X037489Y025488D01*
X037596Y025595D01*
X037810Y025595D01*
X037916Y025488D01*
X037916Y025168D01*
X037916Y025382D02*
X038130Y025595D01*
X038130Y025813D02*
X037703Y025813D01*
X037489Y026026D01*
X037703Y026240D01*
X038130Y026240D01*
X037810Y026240D02*
X037810Y025813D01*
X037810Y024737D02*
X037810Y024524D01*
X038130Y024306D02*
X037489Y024306D01*
X037703Y024093D01*
X037489Y023879D01*
X038130Y023879D01*
X038130Y023662D02*
X037703Y023662D01*
X037489Y023448D01*
X037703Y023235D01*
X038130Y023235D01*
X038023Y023017D02*
X038130Y022910D01*
X038130Y022697D01*
X038023Y022590D01*
X037596Y022590D01*
X037489Y022697D01*
X037489Y022910D01*
X037596Y023017D01*
X037810Y023235D02*
X037810Y023662D01*
X038410Y022060D02*
X038410Y027060D01*
X038660Y027060D01*
X039660Y027060D01*
X039660Y022060D01*
X038660Y022060D01*
X038410Y022060D01*
X038660Y022060D02*
X038660Y027060D01*
X038660Y028160D02*
X038410Y028160D01*
X038410Y034160D01*
X038660Y034160D01*
X039660Y034160D01*
X039660Y028160D01*
X038660Y028160D01*
X038660Y034160D01*
X037930Y033773D02*
X037289Y033773D01*
X037610Y033773D02*
X037610Y033346D01*
X037930Y033346D02*
X037289Y033346D01*
X037289Y033129D02*
X037289Y032702D01*
X037289Y032915D02*
X037930Y032915D01*
X037823Y032484D02*
X037396Y032484D01*
X037289Y032378D01*
X037289Y032164D01*
X037396Y032057D01*
X037823Y032057D01*
X037930Y032164D01*
X037930Y032378D01*
X037823Y032484D01*
X037823Y031840D02*
X037396Y031840D01*
X037289Y031733D01*
X037289Y031520D01*
X037396Y031413D01*
X037823Y031413D01*
X037930Y031520D01*
X037930Y031733D01*
X037823Y031840D01*
X037289Y031195D02*
X037289Y030768D01*
X037289Y030982D02*
X037930Y030982D01*
X037930Y030551D02*
X037930Y030124D01*
X037289Y030124D01*
X037289Y030551D01*
X037610Y030337D02*
X037610Y030124D01*
X037823Y029906D02*
X037289Y029906D01*
X037823Y029906D02*
X037930Y029799D01*
X037930Y029586D01*
X037823Y029479D01*
X037289Y029479D01*
X037289Y028835D02*
X037930Y028835D01*
X037930Y029262D01*
X037823Y028617D02*
X037930Y028510D01*
X037930Y028190D01*
X037289Y028190D01*
X037289Y028510D01*
X037396Y028617D01*
X037503Y028617D01*
X037610Y028510D01*
X037610Y028190D01*
X037610Y028510D02*
X037716Y028617D01*
X037823Y028617D01*
X035596Y029842D02*
X035596Y030078D01*
X035124Y030078D02*
X035124Y029842D01*
X040410Y031160D02*
X040410Y028160D01*
X040660Y028160D01*
X040660Y031160D01*
X040410Y031160D01*
X040660Y031160D02*
X041660Y031160D01*
X041660Y028160D01*
X040660Y028160D01*
X040660Y027060D02*
X040410Y027060D01*
X040410Y022060D01*
X040660Y022060D01*
X040660Y027060D01*
X041660Y027060D01*
X041660Y022060D01*
X040660Y022060D01*
X040660Y021060D02*
X040410Y021060D01*
X040410Y018060D01*
X040660Y018060D01*
X040660Y021060D01*
X041660Y021060D01*
X041660Y018060D01*
X040660Y018060D01*
X040610Y017833D02*
X040610Y017406D01*
X040823Y017188D02*
X040930Y017082D01*
X040930Y016868D01*
X040823Y016761D01*
X040396Y016761D01*
X040289Y016868D01*
X040289Y017082D01*
X040396Y017188D01*
X040289Y017406D02*
X040930Y017406D01*
X040930Y017833D02*
X040289Y017833D01*
X039660Y018060D02*
X039660Y021060D01*
X038660Y021060D01*
X038410Y021060D01*
X038410Y018060D01*
X038660Y018060D01*
X038660Y021060D01*
X038237Y020914D02*
X038237Y020487D01*
X038130Y020269D02*
X038130Y019842D01*
X037489Y019842D01*
X037703Y019625D02*
X038130Y019625D01*
X037810Y019625D02*
X037810Y019198D01*
X037703Y019198D02*
X037489Y019411D01*
X037703Y019625D01*
X037703Y019198D02*
X038130Y019198D01*
X038023Y018980D02*
X038130Y018874D01*
X038130Y018660D01*
X038023Y018553D01*
X037596Y018553D01*
X037489Y018660D01*
X037489Y018874D01*
X037596Y018980D01*
X037489Y018337D02*
X037489Y018124D01*
X037489Y018230D02*
X038130Y018230D01*
X038130Y018124D02*
X038130Y018337D01*
X038660Y018060D02*
X039660Y018060D01*
X039660Y017160D02*
X038660Y017160D01*
X038410Y017160D01*
X038410Y015160D01*
X038660Y015160D01*
X038660Y017160D01*
X038130Y016835D02*
X037489Y016835D01*
X037489Y017155D01*
X037596Y017262D01*
X037810Y017262D01*
X037916Y017155D01*
X037916Y016835D01*
X038023Y016617D02*
X037596Y016617D01*
X037489Y016510D01*
X037489Y016297D01*
X037596Y016190D01*
X038023Y016190D01*
X038130Y016297D01*
X038130Y016510D01*
X038023Y016617D01*
X037489Y017479D02*
X037489Y017906D01*
X037489Y017693D02*
X038130Y017693D01*
X039660Y017160D02*
X039660Y015160D01*
X038660Y015160D01*
X040289Y015042D02*
X040930Y015042D01*
X040716Y015256D01*
X040930Y015469D01*
X040289Y015469D01*
X040289Y015687D02*
X040289Y015901D01*
X040289Y015794D02*
X040930Y015794D01*
X040930Y015687D02*
X040930Y015901D01*
X040930Y016330D02*
X040289Y016330D01*
X040289Y016117D02*
X040289Y016544D01*
X040396Y014825D02*
X040289Y014718D01*
X040289Y014505D01*
X040396Y014398D01*
X040503Y014398D01*
X040610Y014505D01*
X040610Y014718D01*
X040716Y014825D01*
X040823Y014825D01*
X040930Y014718D01*
X040930Y014505D01*
X040823Y014398D01*
X041037Y014180D02*
X041037Y013753D01*
X040930Y013536D02*
X040930Y013109D01*
X040289Y013109D01*
X040289Y012464D02*
X040930Y012464D01*
X040930Y012891D01*
X040930Y012248D02*
X040930Y012035D01*
X040930Y012141D02*
X040289Y012141D01*
X040289Y012035D02*
X040289Y012248D01*
X040289Y011817D02*
X040716Y011390D01*
X040610Y011497D02*
X040930Y011817D01*
X040930Y011390D02*
X040289Y011390D01*
X042396Y016190D02*
X042823Y016190D01*
X042930Y016297D01*
X042930Y016510D01*
X042823Y016617D01*
X042396Y016617D01*
X042289Y016510D01*
X042289Y016297D01*
X042396Y016190D01*
X042289Y016835D02*
X042289Y017155D01*
X042396Y017262D01*
X042610Y017262D01*
X042716Y017155D01*
X042716Y016835D01*
X042930Y016835D02*
X042289Y016835D01*
X042289Y017479D02*
X042289Y017906D01*
X042289Y017693D02*
X042930Y017693D01*
X042930Y018124D02*
X042930Y018337D01*
X042930Y018230D02*
X042289Y018230D01*
X042289Y018124D02*
X042289Y018337D01*
X042396Y018553D02*
X042823Y018553D01*
X042930Y018660D01*
X042930Y018874D01*
X042823Y018980D01*
X042930Y019198D02*
X042503Y019198D01*
X042289Y019411D01*
X042503Y019625D01*
X042930Y019625D01*
X042930Y019842D02*
X042930Y020269D01*
X043037Y020487D02*
X043037Y020914D01*
X042930Y021132D02*
X042289Y021132D01*
X042289Y021452D01*
X042396Y021559D01*
X042610Y021559D01*
X042716Y021452D01*
X042716Y021132D01*
X042716Y021345D02*
X042930Y021559D01*
X042823Y022190D02*
X042396Y022190D01*
X042289Y022297D01*
X042289Y022510D01*
X042396Y022617D01*
X042503Y022835D02*
X042289Y023048D01*
X042503Y023262D01*
X042930Y023262D01*
X042930Y023479D02*
X042289Y023479D01*
X042503Y023693D01*
X042289Y023906D01*
X042930Y023906D01*
X042930Y024124D02*
X042289Y024124D01*
X042289Y024551D01*
X042289Y024768D02*
X042289Y025088D01*
X042396Y025195D01*
X042610Y025195D01*
X042716Y025088D01*
X042716Y024768D01*
X042716Y024982D02*
X042930Y025195D01*
X042930Y025413D02*
X042503Y025413D01*
X042289Y025626D01*
X042503Y025840D01*
X042930Y025840D01*
X042930Y026057D02*
X042503Y026484D01*
X042396Y026484D01*
X042289Y026378D01*
X042289Y026164D01*
X042396Y026057D01*
X042610Y025840D02*
X042610Y025413D01*
X042930Y026057D02*
X042930Y026484D01*
X042930Y024768D02*
X042289Y024768D01*
X042610Y024337D02*
X042610Y024124D01*
X042930Y024124D02*
X042930Y024551D01*
X042610Y023262D02*
X042610Y022835D01*
X042503Y022835D02*
X042930Y022835D01*
X042823Y022617D02*
X042930Y022510D01*
X042930Y022297D01*
X042823Y022190D01*
X042930Y019842D02*
X042289Y019842D01*
X042610Y019625D02*
X042610Y019198D01*
X042396Y018980D02*
X042289Y018874D01*
X042289Y018660D01*
X042396Y018553D01*
X038130Y021132D02*
X038130Y021559D01*
X038130Y021132D02*
X037489Y021132D01*
X036196Y018278D02*
X036196Y018042D01*
X035724Y018042D02*
X035724Y018278D01*
X033996Y018278D02*
X033996Y018042D01*
X033524Y018042D02*
X033524Y018278D01*
X027596Y021442D02*
X027596Y021678D01*
X027124Y021678D02*
X027124Y021442D01*
X023724Y024390D02*
X023724Y025031D01*
X024151Y025031D01*
X023937Y024710D02*
X023724Y024710D01*
X024042Y029724D02*
X024278Y029724D01*
X024278Y030196D02*
X024042Y030196D01*
X020210Y035660D02*
X016510Y035660D01*
X016410Y035760D01*
X016360Y036910D01*
X015560Y036910D02*
X015510Y035760D01*
X015410Y035660D01*
X011710Y035660D01*
X011610Y035760D01*
X011560Y036910D01*
X011390Y037790D02*
X011390Y038431D01*
X011604Y038217D01*
X011817Y038431D01*
X011817Y037790D01*
X012035Y037897D02*
X012035Y038324D01*
X012141Y038431D01*
X012355Y038431D01*
X012462Y038324D01*
X012462Y037897D01*
X012355Y037790D01*
X012141Y037790D01*
X012035Y037897D01*
X012679Y037897D02*
X012786Y037790D01*
X012999Y037790D01*
X013106Y037897D01*
X013106Y038004D01*
X012999Y038110D01*
X012786Y038110D01*
X012679Y038217D01*
X012679Y038324D01*
X012786Y038431D01*
X012999Y038431D01*
X013106Y038324D01*
X013968Y038431D02*
X013968Y037790D01*
X013751Y037683D02*
X013324Y037683D01*
X013968Y038110D02*
X014395Y038110D01*
X014613Y038217D02*
X014720Y038110D01*
X014933Y038110D01*
X015040Y038004D01*
X015040Y037897D01*
X014933Y037790D01*
X014720Y037790D01*
X014613Y037897D01*
X014395Y037790D02*
X014395Y038431D01*
X014613Y038324D02*
X014613Y038217D01*
X014613Y038324D02*
X014720Y038431D01*
X014933Y038431D01*
X015040Y038324D01*
X015257Y038217D02*
X015471Y038431D01*
X015471Y037790D01*
X015684Y037790D02*
X015257Y037790D01*
X016390Y037790D02*
X016390Y038431D01*
X016604Y038217D01*
X016817Y038431D01*
X016817Y037790D01*
X017035Y037897D02*
X017141Y037790D01*
X017355Y037790D01*
X017462Y037897D01*
X017462Y038324D01*
X017355Y038431D01*
X017141Y038431D01*
X017035Y038324D01*
X017035Y037897D01*
X017679Y037897D02*
X017786Y037790D01*
X017999Y037790D01*
X018106Y037897D01*
X018106Y038004D01*
X017999Y038110D01*
X017786Y038110D01*
X017679Y038217D01*
X017679Y038324D01*
X017786Y038431D01*
X017999Y038431D01*
X018106Y038324D01*
X018324Y037683D02*
X018751Y037683D01*
X018968Y037790D02*
X019395Y037790D01*
X019613Y037897D02*
X019720Y037790D01*
X019933Y037790D01*
X020040Y037897D01*
X020040Y038004D01*
X019933Y038110D01*
X019720Y038110D01*
X019613Y038217D01*
X019613Y038324D01*
X019720Y038431D01*
X019933Y038431D01*
X020040Y038324D01*
X020257Y038217D02*
X020471Y038431D01*
X020471Y037790D01*
X020684Y037790D02*
X020257Y037790D01*
X018968Y037790D02*
X018968Y038431D01*
X020360Y036910D02*
X020310Y035760D01*
X020210Y035660D01*
X023790Y036190D02*
X024110Y036190D01*
X024217Y036297D01*
X024217Y036404D01*
X024110Y036510D01*
X023790Y036510D01*
X023790Y036190D02*
X023790Y036831D01*
X024110Y036831D01*
X024217Y036724D01*
X024217Y036617D01*
X024110Y036510D01*
X024435Y036617D02*
X024435Y036297D01*
X024541Y036190D01*
X024862Y036190D01*
X024862Y036083D02*
X024755Y035976D01*
X024648Y035976D01*
X024862Y036083D02*
X024862Y036617D01*
X025079Y036617D02*
X025079Y036297D01*
X025186Y036190D01*
X025506Y036190D01*
X025506Y036617D01*
X025724Y036617D02*
X026044Y036617D01*
X026151Y036510D01*
X026151Y036190D01*
X026368Y036297D02*
X026475Y036190D01*
X026795Y036190D01*
X026795Y036083D02*
X026795Y036617D01*
X026475Y036617D01*
X026368Y036510D01*
X026368Y036297D01*
X026582Y035976D02*
X026688Y035976D01*
X026795Y036083D01*
X027013Y035976D02*
X027226Y036190D01*
X027120Y036190D01*
X027120Y036297D01*
X027226Y036297D01*
X027226Y036190D01*
X028087Y036190D02*
X028087Y036831D01*
X028514Y036831D01*
X028732Y036617D02*
X028732Y036190D01*
X028732Y036404D02*
X028945Y036617D01*
X029052Y036617D01*
X029375Y036617D02*
X029589Y036617D01*
X029696Y036510D01*
X029696Y036190D01*
X029375Y036190D01*
X029269Y036297D01*
X029375Y036404D01*
X029696Y036404D01*
X029913Y036617D02*
X030233Y036617D01*
X030340Y036510D01*
X030340Y036190D01*
X030558Y036190D02*
X030558Y036831D01*
X030878Y036617D02*
X030558Y036404D01*
X030878Y036190D01*
X031095Y035976D02*
X031308Y036190D01*
X031202Y036190D01*
X031202Y036297D01*
X031308Y036297D01*
X031308Y036190D01*
X032169Y036297D02*
X032276Y036190D01*
X032489Y036190D01*
X032596Y036297D01*
X032596Y036724D01*
X032489Y036831D01*
X032276Y036831D01*
X032169Y036724D01*
X032169Y036297D01*
X032383Y036404D02*
X032596Y036190D01*
X032814Y036297D02*
X032920Y036190D01*
X033241Y036190D01*
X033241Y036617D01*
X033458Y036617D02*
X033565Y036617D01*
X033565Y036190D01*
X033458Y036190D02*
X033672Y036190D01*
X033888Y036190D02*
X033888Y036617D01*
X034208Y036617D01*
X034315Y036510D01*
X034315Y036190D01*
X034532Y036190D02*
X034532Y036617D01*
X034853Y036617D01*
X034960Y036510D01*
X034960Y036190D01*
X033565Y036831D02*
X033565Y036937D01*
X032814Y036617D02*
X032814Y036297D01*
X029913Y036190D02*
X029913Y036617D01*
X029613Y037390D02*
X029613Y037497D01*
X030040Y037924D01*
X030040Y038031D01*
X029613Y038031D01*
X028751Y038031D02*
X028751Y037390D01*
X028324Y037390D02*
X028324Y038031D01*
X028537Y037817D01*
X028751Y038031D01*
X028106Y037817D02*
X028106Y037390D01*
X028106Y037710D02*
X027679Y037710D01*
X027679Y037817D02*
X027679Y037390D01*
X027462Y037390D02*
X027035Y037390D01*
X027035Y038031D01*
X027462Y038031D01*
X027679Y037817D02*
X027893Y038031D01*
X028106Y037817D01*
X027248Y037710D02*
X027035Y037710D01*
X026817Y038031D02*
X026390Y038031D01*
X026604Y038031D02*
X026604Y037390D01*
X025724Y036617D02*
X025724Y036190D01*
X028087Y036510D02*
X028301Y036510D01*
X038990Y037590D02*
X039310Y037590D01*
X039417Y037697D01*
X039417Y037804D01*
X039310Y037910D01*
X038990Y037910D01*
X038990Y037590D02*
X038990Y038231D01*
X039310Y038231D01*
X039417Y038124D01*
X039417Y038017D01*
X039310Y037910D01*
X039635Y037910D02*
X039635Y037697D01*
X039741Y037590D01*
X039955Y037590D01*
X040062Y037697D01*
X040062Y037910D01*
X039955Y038017D01*
X039741Y038017D01*
X039635Y037910D01*
X040279Y037697D02*
X040386Y037804D01*
X040706Y037804D01*
X040706Y037910D02*
X040706Y037590D01*
X040386Y037590D01*
X040279Y037697D01*
X040386Y038017D02*
X040599Y038017D01*
X040706Y037910D01*
X040924Y037804D02*
X041137Y038017D01*
X041244Y038017D01*
X041461Y037910D02*
X041568Y038017D01*
X041888Y038017D01*
X041888Y038231D02*
X041888Y037590D01*
X041568Y037590D01*
X041461Y037697D01*
X041461Y037910D01*
X040924Y038017D02*
X040924Y037590D01*
X042750Y038017D02*
X042963Y037590D01*
X043177Y038017D01*
X043394Y038017D02*
X043608Y038231D01*
X043608Y037590D01*
X043821Y037590D02*
X043394Y037590D01*
X044039Y037590D02*
X044146Y037590D01*
X044146Y037697D01*
X044039Y037697D01*
X044039Y037590D01*
X044361Y037697D02*
X044788Y038124D01*
X044788Y037697D01*
X044682Y037590D01*
X044468Y037590D01*
X044361Y037697D01*
X044361Y038124D01*
X044468Y038231D01*
X044682Y038231D01*
X044788Y038124D01*
X042623Y031395D02*
X042196Y031395D01*
X042089Y031288D01*
X042089Y031075D01*
X042196Y030968D01*
X042623Y030968D01*
X042730Y031075D01*
X042730Y031288D01*
X042623Y031395D01*
X042516Y030751D02*
X042089Y030751D01*
X042089Y030324D02*
X042516Y030324D01*
X042730Y030537D01*
X042516Y030751D01*
X042410Y030106D02*
X042196Y030106D01*
X042089Y029999D01*
X042089Y029679D01*
X042730Y029679D01*
X042516Y029679D02*
X042516Y029999D01*
X042410Y030106D01*
X042516Y029893D02*
X042730Y030106D01*
X042730Y029462D02*
X042730Y029035D01*
X042089Y029035D01*
X042089Y029462D01*
X042410Y029248D02*
X042410Y029035D01*
X042516Y028817D02*
X042623Y028817D01*
X042730Y028710D01*
X042730Y028497D01*
X042623Y028390D01*
X042410Y028497D02*
X042410Y028710D01*
X042516Y028817D01*
X042196Y028817D02*
X042089Y028710D01*
X042089Y028497D01*
X042196Y028390D01*
X042303Y028390D01*
X042410Y028497D01*
X030533Y011231D02*
X030320Y011231D01*
X030213Y011124D01*
X030213Y010697D01*
X030320Y010590D01*
X030533Y010590D01*
X030640Y010697D01*
X030640Y010910D01*
X030426Y010910D01*
X030640Y011124D02*
X030533Y011231D01*
X029995Y011231D02*
X029568Y011231D01*
X029568Y010590D01*
X029995Y010590D01*
X029782Y010910D02*
X029568Y010910D01*
X029351Y010910D02*
X029244Y010804D01*
X028924Y010804D01*
X029137Y010804D02*
X029351Y010590D01*
X029351Y010910D02*
X029351Y011124D01*
X029244Y011231D01*
X028924Y011231D01*
X028924Y010590D01*
X028706Y010483D02*
X028279Y010483D01*
X028062Y010804D02*
X028062Y011231D01*
X027635Y011231D02*
X027635Y010804D01*
X027848Y010590D01*
X028062Y010804D01*
X027417Y010804D02*
X027417Y010697D01*
X027310Y010590D01*
X027097Y010590D01*
X026990Y010697D01*
X026990Y010910D01*
X027310Y010910D01*
X027417Y010804D01*
X027204Y011124D02*
X026990Y010910D01*
X027204Y011124D02*
X027417Y011231D01*
D11*
X032570Y011607D02*
X032607Y011570D01*
X032680Y011570D01*
X032717Y011607D01*
X032791Y011570D02*
X032938Y011570D01*
X032864Y011570D02*
X032864Y011790D01*
X032791Y011717D01*
X032717Y011753D02*
X032680Y011790D01*
X032607Y011790D01*
X032570Y011753D01*
X032570Y011607D01*
X033012Y011570D02*
X033159Y011570D01*
X033085Y011570D02*
X033085Y011790D01*
X033012Y011717D01*
X033454Y011680D02*
X033601Y011680D01*
X033896Y011753D02*
X033933Y011790D01*
X034006Y011790D01*
X034043Y011753D01*
X034043Y011717D01*
X033896Y011570D01*
X034043Y011570D01*
X034117Y011570D02*
X034264Y011717D01*
X034264Y011753D01*
X034227Y011790D01*
X034154Y011790D01*
X034117Y011753D01*
X034117Y011570D02*
X034264Y011570D01*
X034338Y011607D02*
X034375Y011570D01*
X034485Y011570D01*
X034485Y011717D01*
X034559Y011680D02*
X034632Y011680D01*
X034559Y011570D02*
X034559Y011790D01*
X034706Y011790D01*
X034338Y011717D02*
X034338Y011607D01*
X034312Y018770D02*
X034275Y018807D01*
X034312Y018770D02*
X034385Y018770D01*
X034422Y018807D01*
X034422Y018880D01*
X034385Y018917D01*
X034348Y018917D01*
X034275Y018880D01*
X034275Y018990D01*
X034422Y018990D01*
X034496Y018953D02*
X034533Y018990D01*
X034606Y018990D01*
X034643Y018953D01*
X034496Y018807D01*
X034533Y018770D01*
X034606Y018770D01*
X034643Y018807D01*
X034643Y018953D01*
X034496Y018953D02*
X034496Y018807D01*
X033980Y018880D02*
X033833Y018880D01*
X033538Y018843D02*
X033501Y018880D01*
X033391Y018880D01*
X033391Y018807D01*
X033428Y018770D01*
X033501Y018770D01*
X033538Y018807D01*
X033538Y018843D01*
X033464Y018953D02*
X033391Y018880D01*
X033317Y018880D02*
X033280Y018843D01*
X033170Y018843D01*
X033170Y018770D02*
X033170Y018990D01*
X033280Y018990D01*
X033317Y018953D01*
X033317Y018880D01*
X033243Y018843D02*
X033317Y018770D01*
X033464Y018953D02*
X033538Y018990D01*
X032043Y019970D02*
X031896Y019970D01*
X031969Y019970D02*
X031969Y020190D01*
X031896Y020117D01*
X031822Y020153D02*
X031785Y020190D01*
X031712Y020190D01*
X031675Y020153D01*
X031675Y020117D01*
X031712Y020080D01*
X031785Y020080D01*
X031822Y020043D01*
X031822Y020007D01*
X031785Y019970D01*
X031712Y019970D01*
X031675Y020007D01*
X031601Y019933D02*
X031454Y019933D01*
X031380Y020007D02*
X031380Y020153D01*
X031343Y020190D01*
X031233Y020190D01*
X031233Y019970D01*
X031343Y019970D01*
X031380Y020007D01*
X031159Y019970D02*
X031159Y020190D01*
X031012Y020190D02*
X031159Y019970D01*
X031012Y019970D02*
X031012Y020190D01*
X030938Y020117D02*
X030938Y019970D01*
X030938Y020080D02*
X030791Y020080D01*
X030791Y020117D02*
X030864Y020190D01*
X030938Y020117D01*
X030791Y020117D02*
X030791Y019970D01*
X030717Y019970D02*
X030717Y020190D01*
X030570Y020190D02*
X030717Y019970D01*
X030570Y019970D02*
X030570Y020190D01*
X029759Y021570D02*
X029759Y021790D01*
X029906Y021790D01*
X029832Y021680D02*
X029759Y021680D01*
X029685Y021680D02*
X029685Y021570D01*
X029685Y021680D02*
X029648Y021717D01*
X029538Y021717D01*
X029538Y021570D01*
X029464Y021607D02*
X029427Y021570D01*
X029354Y021570D01*
X029317Y021607D01*
X029464Y021753D01*
X029464Y021607D01*
X029464Y021753D02*
X029427Y021790D01*
X029354Y021790D01*
X029317Y021753D01*
X029317Y021607D01*
X029243Y021753D02*
X029096Y021607D01*
X029096Y021570D01*
X028985Y021570D02*
X028985Y021790D01*
X028875Y021680D01*
X029022Y021680D01*
X029096Y021790D02*
X029243Y021790D01*
X029243Y021753D01*
X028580Y021680D02*
X028433Y021680D01*
X028138Y021717D02*
X027991Y021570D01*
X028138Y021570D01*
X028138Y021717D02*
X028138Y021753D01*
X028101Y021790D01*
X028028Y021790D01*
X027991Y021753D01*
X027917Y021753D02*
X027880Y021790D01*
X027807Y021790D01*
X027770Y021753D01*
X027770Y021607D01*
X027807Y021570D01*
X027880Y021570D01*
X027917Y021607D01*
X035370Y018990D02*
X035480Y018990D01*
X035517Y018953D01*
X035517Y018880D01*
X035480Y018843D01*
X035370Y018843D01*
X035370Y018770D02*
X035370Y018990D01*
X035443Y018843D02*
X035517Y018770D01*
X035591Y018807D02*
X035628Y018770D01*
X035701Y018770D01*
X035738Y018807D01*
X035738Y018880D01*
X035701Y018917D01*
X035664Y018917D01*
X035591Y018880D01*
X035591Y018990D01*
X035738Y018990D01*
X036033Y018880D02*
X036180Y018880D01*
X036475Y018880D02*
X036548Y018917D01*
X036585Y018917D01*
X036622Y018880D01*
X036622Y018807D01*
X036585Y018770D01*
X036512Y018770D01*
X036475Y018807D01*
X036475Y018880D02*
X036475Y018990D01*
X036622Y018990D01*
X036696Y018953D02*
X036733Y018990D01*
X036806Y018990D01*
X036843Y018953D01*
X036696Y018807D01*
X036733Y018770D01*
X036806Y018770D01*
X036843Y018807D01*
X036843Y018953D01*
X036696Y018953D02*
X036696Y018807D01*
X036206Y030570D02*
X036133Y030570D01*
X036096Y030607D01*
X036243Y030753D01*
X036243Y030607D01*
X036206Y030570D01*
X036096Y030607D02*
X036096Y030753D01*
X036133Y030790D01*
X036206Y030790D01*
X036243Y030753D01*
X036022Y030790D02*
X035875Y030790D01*
X035875Y030680D01*
X035948Y030717D01*
X035985Y030717D01*
X036022Y030680D01*
X036022Y030607D01*
X035985Y030570D01*
X035912Y030570D01*
X035875Y030607D01*
X035580Y030680D02*
X035433Y030680D01*
X035138Y030753D02*
X034991Y030607D01*
X034991Y030570D01*
X034917Y030570D02*
X034843Y030643D01*
X034880Y030643D02*
X034770Y030643D01*
X034770Y030570D02*
X034770Y030790D01*
X034880Y030790D01*
X034917Y030753D01*
X034917Y030680D01*
X034880Y030643D01*
X034991Y030790D02*
X035138Y030790D01*
X035138Y030753D01*
X025485Y030590D02*
X025338Y030590D01*
X025338Y030370D01*
X025264Y030370D02*
X025264Y030480D01*
X025227Y030517D01*
X025117Y030517D01*
X025117Y030370D01*
X025043Y030407D02*
X025006Y030370D01*
X024933Y030370D01*
X024896Y030407D01*
X024822Y030407D02*
X024785Y030370D01*
X024712Y030370D01*
X024675Y030407D01*
X024748Y030480D02*
X024785Y030480D01*
X024822Y030443D01*
X024822Y030407D01*
X024785Y030480D02*
X024822Y030517D01*
X024822Y030553D01*
X024785Y030590D01*
X024712Y030590D01*
X024675Y030553D01*
X024896Y030553D02*
X024933Y030590D01*
X025006Y030590D01*
X025043Y030553D01*
X025043Y030517D01*
X025006Y030480D01*
X025043Y030443D01*
X025043Y030407D01*
X025006Y030480D02*
X024969Y030480D01*
X025338Y030480D02*
X025411Y030480D01*
X024380Y030480D02*
X024233Y030480D01*
X023938Y030480D02*
X023791Y030480D01*
X023901Y030590D01*
X023901Y030370D01*
X023717Y030407D02*
X023680Y030370D01*
X023607Y030370D01*
X023570Y030407D01*
X023570Y030553D01*
X023607Y030590D01*
X023680Y030590D01*
X023717Y030553D01*
X009085Y035190D02*
X008938Y035190D01*
X008938Y034970D01*
X008864Y034970D02*
X008864Y035117D01*
X008938Y035080D02*
X009011Y035080D01*
X008864Y034970D02*
X008754Y034970D01*
X008717Y035007D01*
X008717Y035117D01*
X008643Y035117D02*
X008643Y035153D01*
X008606Y035190D01*
X008533Y035190D01*
X008496Y035153D01*
X008422Y035153D02*
X008385Y035190D01*
X008312Y035190D01*
X008275Y035153D01*
X008422Y035153D02*
X008422Y035117D01*
X008275Y034970D01*
X008422Y034970D01*
X008496Y034970D02*
X008643Y035117D01*
X008643Y034970D02*
X008496Y034970D01*
X007980Y035080D02*
X007833Y035080D01*
X007538Y035043D02*
X007538Y035007D01*
X007501Y034970D01*
X007428Y034970D01*
X007391Y035007D01*
X007317Y035007D02*
X007280Y034970D01*
X007207Y034970D01*
X007170Y035007D01*
X007170Y035153D01*
X007207Y035190D01*
X007280Y035190D01*
X007317Y035153D01*
X007391Y035153D02*
X007428Y035190D01*
X007501Y035190D01*
X007538Y035153D01*
X007538Y035117D01*
X007501Y035080D01*
X007538Y035043D01*
X007501Y035080D02*
X007464Y035080D01*
X007322Y015990D02*
X007249Y015990D01*
X007212Y015953D01*
X007322Y015990D02*
X007359Y015953D01*
X007359Y015917D01*
X007212Y015770D01*
X007359Y015770D01*
X007138Y015770D02*
X006991Y015770D01*
X007064Y015770D02*
X007064Y015990D01*
X006991Y015917D01*
X006917Y015953D02*
X006880Y015990D01*
X006807Y015990D01*
X006770Y015953D01*
X006770Y015807D01*
X006807Y015770D01*
X006880Y015770D01*
X006917Y015807D01*
X007654Y015880D02*
X007801Y015880D01*
X008096Y015807D02*
X008133Y015807D01*
X008133Y015770D01*
X008096Y015770D01*
X008096Y015807D01*
X008206Y015770D02*
X008353Y015770D01*
X008280Y015770D02*
X008280Y015990D01*
X008206Y015917D01*
X008427Y015917D02*
X008427Y015807D01*
X008464Y015770D01*
X008574Y015770D01*
X008574Y015917D01*
X008648Y015880D02*
X008722Y015880D01*
X008648Y015990D02*
X008795Y015990D01*
X008648Y015990D02*
X008648Y015770D01*
X011370Y015807D02*
X011407Y015770D01*
X011480Y015770D01*
X011517Y015807D01*
X011591Y015807D02*
X011628Y015770D01*
X011701Y015770D01*
X011738Y015807D01*
X011738Y015843D01*
X011701Y015880D01*
X011591Y015880D01*
X011591Y015807D01*
X011591Y015880D02*
X011664Y015953D01*
X011738Y015990D01*
X011517Y015953D02*
X011480Y015990D01*
X011407Y015990D01*
X011370Y015953D01*
X011370Y015807D01*
X012033Y015880D02*
X012180Y015880D01*
X012475Y015880D02*
X012622Y015880D01*
X012696Y015807D02*
X012733Y015807D01*
X012733Y015770D01*
X012696Y015770D01*
X012696Y015807D01*
X012806Y015807D02*
X012806Y015770D01*
X012806Y015807D02*
X012953Y015953D01*
X012953Y015990D01*
X012806Y015990D01*
X012585Y015990D02*
X012475Y015880D01*
X012585Y015770D02*
X012585Y015990D01*
X013027Y015917D02*
X013027Y015770D01*
X013027Y015917D02*
X013138Y015917D01*
X013174Y015880D01*
X013174Y015770D01*
X013207Y015770D02*
X013280Y015770D01*
X013317Y015807D01*
X013322Y015880D02*
X013248Y015880D01*
X013317Y015953D02*
X013280Y015990D01*
X013207Y015990D01*
X013170Y015953D01*
X013170Y015807D01*
X013207Y015770D01*
X013248Y015770D02*
X013248Y015990D01*
X013395Y015990D01*
X013391Y015990D02*
X013391Y015880D01*
X013464Y015917D01*
X013501Y015917D01*
X013538Y015880D01*
X013538Y015807D01*
X013501Y015770D01*
X013428Y015770D01*
X013391Y015807D01*
X013391Y015990D02*
X013538Y015990D01*
X013833Y015880D02*
X013980Y015880D01*
X014275Y015880D02*
X014422Y015880D01*
X014496Y015807D02*
X014496Y015770D01*
X014496Y015807D02*
X014643Y015953D01*
X014643Y015990D01*
X014496Y015990D01*
X014385Y015990D02*
X014275Y015880D01*
X014385Y015770D02*
X014385Y015990D01*
X014717Y015917D02*
X014717Y015770D01*
X014864Y015770D02*
X014864Y015880D01*
X014827Y015917D01*
X014717Y015917D01*
X014938Y015880D02*
X015011Y015880D01*
X014938Y015770D02*
X014938Y015990D01*
X015085Y015990D01*
X015101Y014990D02*
X015138Y014953D01*
X015138Y014917D01*
X015101Y014880D01*
X015138Y014843D01*
X015138Y014807D01*
X015101Y014770D01*
X015028Y014770D01*
X014991Y014807D01*
X014917Y014770D02*
X014843Y014843D01*
X014880Y014843D02*
X014770Y014843D01*
X014770Y014770D02*
X014770Y014990D01*
X014880Y014990D01*
X014917Y014953D01*
X014917Y014880D01*
X014880Y014843D01*
X014991Y014953D02*
X015028Y014990D01*
X015101Y014990D01*
X015101Y014880D02*
X015064Y014880D01*
X015433Y014880D02*
X015580Y014880D01*
X015875Y014953D02*
X015912Y014990D01*
X015985Y014990D01*
X016022Y014953D01*
X016022Y014917D01*
X015875Y014770D01*
X016022Y014770D01*
X016096Y014770D02*
X016096Y014990D01*
X016206Y014917D02*
X016096Y014843D01*
X016206Y014770D01*
D12*
X016410Y014660D02*
X016410Y016660D01*
X024410Y016660D01*
X024410Y014660D01*
X016410Y014660D01*
X014860Y014160D02*
X036760Y014160D01*
X034910Y014660D02*
X034910Y016660D01*
X024910Y016660D01*
X024910Y014660D01*
X034910Y014660D01*
X030710Y013360D02*
X030760Y012210D01*
X030430Y013220D02*
X030432Y013240D01*
X030438Y013258D01*
X030447Y013276D01*
X030459Y013291D01*
X030474Y013303D01*
X030492Y013312D01*
X030510Y013318D01*
X030530Y013320D01*
X030550Y013318D01*
X030568Y013312D01*
X030586Y013303D01*
X030601Y013291D01*
X030613Y013276D01*
X030622Y013258D01*
X030628Y013240D01*
X030630Y013220D01*
X030628Y013200D01*
X030622Y013182D01*
X030613Y013164D01*
X030601Y013149D01*
X030586Y013137D01*
X030568Y013128D01*
X030550Y013122D01*
X030530Y013120D01*
X030510Y013122D01*
X030492Y013128D01*
X030474Y013137D01*
X030459Y013149D01*
X030447Y013164D01*
X030438Y013182D01*
X030432Y013200D01*
X030430Y013220D01*
X030610Y013460D02*
X030710Y013360D01*
X030610Y013460D02*
X026910Y013460D01*
X026810Y013360D01*
X026760Y012210D01*
X025560Y012210D02*
X025510Y013360D01*
X025410Y013460D01*
X021710Y013460D01*
X021610Y013360D01*
X021560Y012210D01*
X025230Y013220D02*
X025232Y013240D01*
X025238Y013258D01*
X025247Y013276D01*
X025259Y013291D01*
X025274Y013303D01*
X025292Y013312D01*
X025310Y013318D01*
X025330Y013320D01*
X025350Y013318D01*
X025368Y013312D01*
X025386Y013303D01*
X025401Y013291D01*
X025413Y013276D01*
X025422Y013258D01*
X025428Y013240D01*
X025430Y013220D01*
X025428Y013200D01*
X025422Y013182D01*
X025413Y013164D01*
X025401Y013149D01*
X025386Y013137D01*
X025368Y013128D01*
X025350Y013122D01*
X025330Y013120D01*
X025310Y013122D01*
X025292Y013128D01*
X025274Y013137D01*
X025259Y013149D01*
X025247Y013164D01*
X025238Y013182D01*
X025232Y013200D01*
X025230Y013220D01*
X018176Y016994D02*
X018176Y021744D01*
X009426Y021744D01*
X009426Y016994D01*
X018176Y016994D01*
X016060Y017160D02*
X013660Y031260D01*
X013660Y017960D01*
X011060Y032160D01*
X011060Y017160D01*
X016060Y017160D01*
X016060Y032160D01*
X011060Y032160D01*
X010340Y031900D02*
X010221Y031900D01*
X010221Y028829D01*
X012899Y028829D01*
X012899Y031900D01*
X012780Y031900D01*
X014221Y031900D02*
X014221Y028829D01*
X016899Y028829D01*
X016899Y031900D01*
X016780Y031900D01*
X016410Y032660D02*
X016410Y034660D01*
X022410Y034660D01*
X022410Y032660D01*
X016410Y032660D01*
X014340Y031900D02*
X014221Y031900D01*
X014760Y035160D02*
X014624Y035158D01*
X014488Y035152D01*
X014352Y035142D01*
X014217Y035129D01*
X014082Y035111D01*
X013948Y035089D01*
X013814Y035064D01*
X013681Y035035D01*
X013549Y035001D01*
X013418Y034964D01*
X013288Y034924D01*
X013160Y034879D01*
X013033Y034831D01*
X012907Y034779D01*
X012783Y034724D01*
X012660Y034665D01*
X012539Y034602D01*
X012420Y034536D01*
X012303Y034467D01*
X012188Y034394D01*
X012075Y034318D01*
X011965Y034239D01*
X011857Y034156D01*
X011751Y034071D01*
X011648Y033982D01*
X011547Y033891D01*
X011449Y033796D01*
X011354Y033699D01*
X011262Y033599D01*
X011172Y033497D01*
X011086Y033391D01*
X011002Y033284D01*
X010922Y033174D01*
X010845Y033062D01*
X010772Y032947D01*
X010701Y032831D01*
X010634Y032712D01*
X010571Y032592D01*
X010511Y032470D01*
X010454Y032346D01*
X010402Y032221D01*
X010352Y032094D01*
X010307Y031966D01*
X010265Y031836D01*
X010227Y031706D01*
X010193Y031574D01*
X010163Y031441D01*
X010136Y031308D01*
X010114Y031174D01*
X010095Y031039D01*
X010080Y030904D01*
X010069Y030768D01*
X010062Y030632D01*
X010059Y030496D01*
X010060Y030360D01*
X010060Y018960D01*
X008760Y019360D02*
X008760Y021360D01*
X005260Y021360D01*
X004760Y020860D01*
X004760Y019360D01*
X008760Y019360D01*
X010021Y023429D02*
X012699Y023429D01*
X012699Y026500D01*
X012580Y026500D01*
X014021Y026500D02*
X014021Y023429D01*
X016699Y023429D01*
X016699Y026500D01*
X016580Y026500D01*
X014140Y026500D02*
X014021Y026500D01*
X010140Y026500D02*
X010021Y026500D01*
X010021Y023429D01*
X008760Y023960D02*
X008760Y025960D01*
X005260Y025960D01*
X004760Y025460D01*
X004760Y023960D01*
X008760Y023960D01*
X008760Y028160D02*
X004760Y028160D01*
X004760Y029660D01*
X005260Y030160D01*
X008760Y030160D01*
X008760Y028160D01*
X014760Y035160D02*
X036660Y035160D01*
X031410Y034660D02*
X031410Y032660D01*
X023410Y032660D01*
X023410Y034660D01*
X031410Y034660D01*
X036660Y035160D02*
X036801Y035167D01*
X036941Y035169D01*
X037082Y035168D01*
X037223Y035162D01*
X037363Y035153D01*
X037504Y035140D01*
X037643Y035123D01*
X037783Y035102D01*
X037921Y035078D01*
X038059Y035049D01*
X038196Y035017D01*
X038332Y034981D01*
X038467Y034942D01*
X038601Y034898D01*
X038734Y034851D01*
X038865Y034800D01*
X038995Y034746D01*
X039124Y034688D01*
X039250Y034627D01*
X039375Y034562D01*
X039498Y034494D01*
X039620Y034422D01*
X039739Y034347D01*
X039856Y034269D01*
X039971Y034188D01*
X040083Y034103D01*
X040194Y034016D01*
X040301Y033925D01*
X040407Y033831D01*
X040509Y033735D01*
X040609Y033636D01*
X040706Y033534D01*
X040800Y033429D01*
X040892Y033322D01*
X040980Y033213D01*
X041066Y033101D01*
X041148Y032986D01*
X041227Y032870D01*
X041303Y032751D01*
X041375Y032631D01*
X041444Y032508D01*
X041510Y032383D01*
X041572Y032257D01*
X041631Y032129D01*
X041686Y032000D01*
X041738Y031869D01*
X041786Y031736D01*
X041830Y031603D01*
X041871Y031468D01*
X041908Y031332D01*
X041941Y031195D01*
X041971Y031058D01*
X041996Y030919D01*
X042018Y030780D01*
X042036Y030641D01*
X042050Y030500D01*
X042060Y030360D01*
X042060Y018960D01*
X042360Y018960D01*
X042360Y021960D01*
X038060Y021960D01*
X038060Y018960D01*
X042060Y018960D01*
X042051Y018821D01*
X042038Y018682D01*
X042022Y018544D01*
X042002Y018406D01*
X041978Y018269D01*
X041950Y018132D01*
X041918Y017997D01*
X041883Y017862D01*
X041844Y017728D01*
X041801Y017595D01*
X041755Y017464D01*
X041705Y017334D01*
X041652Y017205D01*
X041595Y017078D01*
X041534Y016953D01*
X041470Y016829D01*
X041403Y016707D01*
X041332Y016587D01*
X041258Y016469D01*
X041181Y016353D01*
X041101Y016239D01*
X041017Y016127D01*
X040931Y016018D01*
X040841Y015911D01*
X040749Y015807D01*
X040654Y015705D01*
X040556Y015606D01*
X040455Y015510D01*
X040352Y015416D01*
X040246Y015325D01*
X040138Y015238D01*
X040027Y015153D01*
X039914Y015071D01*
X039799Y014993D01*
X039682Y014918D01*
X039563Y014846D01*
X039441Y014777D01*
X039318Y014712D01*
X039194Y014650D01*
X039067Y014591D01*
X038939Y014536D01*
X038810Y014485D01*
X038679Y014437D01*
X038547Y014393D01*
X038413Y014353D01*
X038279Y014316D01*
X038144Y014283D01*
X038007Y014253D01*
X037870Y014228D01*
X037733Y014206D01*
X037595Y014188D01*
X037456Y014174D01*
X037317Y014163D01*
X037178Y014157D01*
X037039Y014154D01*
X036899Y014155D01*
X036760Y014160D01*
X035454Y020543D02*
X035454Y020977D01*
X034666Y020977D02*
X034666Y020543D01*
X031554Y020543D02*
X031554Y020977D01*
X030766Y020977D02*
X030766Y020543D01*
X022299Y023429D02*
X019621Y023429D01*
X019621Y026500D01*
X019740Y026500D01*
X022180Y026500D02*
X022299Y026500D01*
X022299Y023429D01*
X014860Y014160D02*
X014723Y014162D01*
X014586Y014168D01*
X014449Y014178D01*
X014313Y014191D01*
X014177Y014209D01*
X014041Y014230D01*
X013907Y014256D01*
X013773Y014285D01*
X013640Y014318D01*
X013508Y014354D01*
X013377Y014395D01*
X013247Y014439D01*
X013119Y014487D01*
X012992Y014539D01*
X012866Y014594D01*
X012742Y014652D01*
X012620Y014715D01*
X012500Y014780D01*
X012381Y014850D01*
X012265Y014922D01*
X012151Y014998D01*
X012039Y015077D01*
X011929Y015159D01*
X011822Y015244D01*
X011717Y015332D01*
X011614Y015424D01*
X011515Y015518D01*
X011418Y015615D01*
X011324Y015714D01*
X011232Y015817D01*
X011144Y015922D01*
X011059Y016029D01*
X010977Y016139D01*
X010898Y016251D01*
X010822Y016365D01*
X010750Y016481D01*
X010680Y016600D01*
X010615Y016720D01*
X010552Y016842D01*
X010494Y016966D01*
X010439Y017092D01*
X010387Y017219D01*
X010339Y017347D01*
X010295Y017477D01*
X010254Y017608D01*
X010218Y017740D01*
X010185Y017873D01*
X010156Y018007D01*
X010130Y018141D01*
X010109Y018277D01*
X010091Y018413D01*
X010078Y018549D01*
X010068Y018686D01*
X010062Y018823D01*
X010060Y018960D01*
X038060Y027260D02*
X038060Y030260D01*
X042360Y030260D01*
X042360Y027260D01*
X038060Y027260D01*
D13*
X041280Y025950D02*
X041280Y025720D01*
X041740Y025720D01*
X041740Y025950D01*
X041663Y026027D01*
X041356Y026027D01*
X041280Y025950D01*
X041280Y025566D02*
X041740Y025566D01*
X041280Y025259D01*
X041740Y025259D01*
X041740Y025106D02*
X041740Y024799D01*
X041280Y024799D01*
X041280Y025106D01*
X041510Y024952D02*
X041510Y024799D01*
X041587Y024185D02*
X041663Y024185D01*
X041740Y024108D01*
X041740Y023878D01*
X041280Y023878D01*
X041280Y024108D01*
X041356Y024185D01*
X041433Y024185D01*
X041510Y024108D01*
X041510Y023878D01*
X041587Y023725D02*
X041663Y023725D01*
X041740Y023648D01*
X041740Y023494D01*
X041663Y023418D01*
X041663Y023264D02*
X041280Y023264D01*
X041356Y023418D02*
X041433Y023418D01*
X041510Y023494D01*
X041510Y023648D01*
X041587Y023725D01*
X041356Y023725D02*
X041280Y023648D01*
X041280Y023494D01*
X041356Y023418D01*
X041663Y023264D02*
X041740Y023187D01*
X041740Y023034D01*
X041663Y022957D01*
X041280Y022957D01*
X041510Y024108D02*
X041587Y024185D01*
X034750Y017340D02*
X034596Y017340D01*
X034520Y017264D01*
X034366Y017340D02*
X034213Y017340D01*
X034289Y017340D02*
X034289Y016957D01*
X034213Y016880D01*
X034136Y016880D01*
X034059Y016957D01*
X034520Y016880D02*
X034827Y017187D01*
X034827Y017264D01*
X034750Y017340D01*
X034827Y016880D02*
X034520Y016880D01*
X020727Y016880D02*
X020420Y016880D01*
X020573Y016880D02*
X020573Y017340D01*
X020420Y017187D01*
X020266Y017340D02*
X020113Y017340D01*
X020189Y017340D02*
X020189Y016957D01*
X020113Y016880D01*
X020036Y016880D01*
X019959Y016957D01*
X019444Y022150D02*
X019444Y022380D01*
X019367Y022457D01*
X019060Y022457D01*
X018984Y022380D01*
X018984Y022150D01*
X019444Y022150D01*
X019444Y022610D02*
X019444Y022764D01*
X019444Y022687D02*
X018984Y022687D01*
X018984Y022610D02*
X018984Y022764D01*
X019060Y022917D02*
X019367Y022917D01*
X019444Y022994D01*
X019444Y023148D01*
X019367Y023224D01*
X019060Y023224D01*
X018984Y023148D01*
X018984Y022994D01*
X019060Y022917D01*
X018984Y023378D02*
X018984Y023608D01*
X019060Y023685D01*
X019367Y023685D01*
X019444Y023608D01*
X019444Y023378D01*
X018984Y023378D01*
X018984Y023838D02*
X019444Y023838D01*
X019444Y024145D01*
X019521Y024299D02*
X019521Y024606D01*
X019367Y024759D02*
X019444Y024836D01*
X019444Y024989D01*
X019367Y025066D01*
X019290Y025066D01*
X019214Y024989D01*
X019214Y024836D01*
X019137Y024759D01*
X019060Y024759D01*
X018984Y024836D01*
X018984Y024989D01*
X019060Y025066D01*
X019137Y025219D02*
X018984Y025373D01*
X019444Y025373D01*
X019444Y025526D02*
X019444Y025219D01*
X018984Y024145D02*
X018984Y023838D01*
X019214Y023838D02*
X019214Y023992D01*
X013921Y024299D02*
X013921Y024606D01*
X013767Y024759D02*
X013844Y024836D01*
X013844Y024989D01*
X013767Y025066D01*
X013690Y025066D01*
X013614Y024989D01*
X013614Y024836D01*
X013537Y024759D01*
X013460Y024759D01*
X013384Y024836D01*
X013384Y024989D01*
X013460Y025066D01*
X013460Y025219D02*
X013384Y025296D01*
X013384Y025450D01*
X013460Y025526D01*
X013537Y025526D01*
X013844Y025219D01*
X013844Y025526D01*
X013844Y024145D02*
X013844Y023838D01*
X013384Y023838D01*
X013384Y024145D01*
X013614Y023992D02*
X013614Y023838D01*
X013767Y023685D02*
X013460Y023685D01*
X013384Y023608D01*
X013384Y023378D01*
X013844Y023378D01*
X013844Y023608D01*
X013767Y023685D01*
X013767Y023224D02*
X013460Y023224D01*
X013384Y023148D01*
X013384Y022994D01*
X013460Y022917D01*
X013767Y022917D01*
X013844Y022994D01*
X013844Y023148D01*
X013767Y023224D01*
X013844Y022764D02*
X013844Y022610D01*
X013844Y022687D02*
X013384Y022687D01*
X013384Y022610D02*
X013384Y022764D01*
X013460Y022457D02*
X013384Y022380D01*
X013384Y022150D01*
X013844Y022150D01*
X013844Y022380D01*
X013767Y022457D01*
X013460Y022457D01*
X009844Y022380D02*
X009767Y022457D01*
X009460Y022457D01*
X009384Y022380D01*
X009384Y022150D01*
X009844Y022150D01*
X009844Y022380D01*
X009844Y022610D02*
X009844Y022917D01*
X009844Y022764D02*
X009384Y022764D01*
X009537Y022610D01*
X006698Y023787D02*
X006622Y023787D01*
X006468Y023633D01*
X006468Y023480D02*
X006468Y023787D01*
X006315Y023710D02*
X006238Y023787D01*
X006084Y023787D01*
X006008Y023710D01*
X006008Y023557D01*
X006084Y023480D01*
X006238Y023480D01*
X006315Y023557D01*
X006315Y023710D01*
X005854Y023787D02*
X005701Y023787D01*
X005778Y023864D02*
X005778Y023557D01*
X005854Y023480D01*
X005547Y023557D02*
X005547Y023710D01*
X005471Y023787D01*
X005317Y023787D01*
X005240Y023710D01*
X005240Y023557D01*
X005317Y023480D01*
X005471Y023480D01*
X005547Y023557D01*
X005087Y023480D02*
X005087Y023710D01*
X005010Y023787D01*
X004933Y023710D01*
X004933Y023480D01*
X004780Y023480D02*
X004780Y023787D01*
X004857Y023787D01*
X004933Y023710D01*
X005010Y027680D02*
X004780Y027680D01*
X004780Y028140D01*
X004780Y027987D02*
X005010Y027987D01*
X005087Y027910D01*
X005087Y027757D01*
X005010Y027680D01*
X005240Y027757D02*
X005317Y027833D01*
X005547Y027833D01*
X005547Y027910D02*
X005547Y027680D01*
X005317Y027680D01*
X005240Y027757D01*
X005317Y027987D02*
X005471Y027987D01*
X005547Y027910D01*
X005701Y027987D02*
X005854Y027987D01*
X005778Y028064D02*
X005778Y027757D01*
X005854Y027680D01*
X006084Y027757D02*
X006084Y028064D01*
X006008Y027987D02*
X006161Y027987D01*
X006084Y027757D02*
X006161Y027680D01*
X009584Y027780D02*
X009584Y027550D01*
X010044Y027550D01*
X010044Y027780D01*
X009967Y027857D01*
X009660Y027857D01*
X009584Y027780D01*
X009584Y028010D02*
X009584Y028164D01*
X009584Y028087D02*
X010044Y028087D01*
X010044Y028010D02*
X010044Y028164D01*
X009967Y028317D02*
X009660Y028317D01*
X009584Y028394D01*
X009584Y028548D01*
X009660Y028624D01*
X009967Y028624D01*
X010044Y028548D01*
X010044Y028394D01*
X009967Y028317D01*
X010044Y028778D02*
X009584Y028778D01*
X009584Y029008D01*
X009660Y029085D01*
X009967Y029085D01*
X010044Y029008D01*
X010044Y028778D01*
X010044Y029238D02*
X009584Y029238D01*
X009584Y029545D01*
X009814Y029392D02*
X009814Y029238D01*
X010044Y029238D02*
X010044Y029545D01*
X010121Y029699D02*
X010121Y030006D01*
X010044Y030159D02*
X010044Y030466D01*
X010044Y030159D02*
X009584Y030159D01*
X013584Y030159D02*
X013584Y030389D01*
X013660Y030466D01*
X013814Y030466D01*
X013890Y030389D01*
X013890Y030159D01*
X013890Y030312D02*
X014044Y030466D01*
X014044Y030159D02*
X013584Y030159D01*
X014121Y030006D02*
X014121Y029699D01*
X014044Y029545D02*
X014044Y029238D01*
X013584Y029238D01*
X013584Y029545D01*
X013814Y029392D02*
X013814Y029238D01*
X013967Y029085D02*
X013660Y029085D01*
X013584Y029008D01*
X013584Y028778D01*
X014044Y028778D01*
X014044Y029008D01*
X013967Y029085D01*
X013967Y028624D02*
X013660Y028624D01*
X013584Y028548D01*
X013584Y028394D01*
X013660Y028317D01*
X013967Y028317D01*
X014044Y028394D01*
X014044Y028548D01*
X013967Y028624D01*
X014044Y028164D02*
X014044Y028010D01*
X014044Y028087D02*
X013584Y028087D01*
X013584Y028010D02*
X013584Y028164D01*
X013660Y027857D02*
X013584Y027780D01*
X013584Y027550D01*
X014044Y027550D01*
X014044Y027780D01*
X013967Y027857D01*
X013660Y027857D01*
X016676Y031980D02*
X016752Y031980D01*
X016829Y032057D01*
X016829Y032440D01*
X016752Y032440D02*
X016906Y032440D01*
X017059Y032287D02*
X017213Y032440D01*
X017213Y031980D01*
X017366Y031980D02*
X017059Y031980D01*
X016676Y031980D02*
X016599Y032057D01*
X017520Y032057D02*
X017827Y032364D01*
X017827Y032057D01*
X017750Y031980D01*
X017596Y031980D01*
X017520Y032057D01*
X017520Y032364D01*
X017596Y032440D01*
X017750Y032440D01*
X017827Y032364D01*
X023559Y032057D02*
X023636Y031980D01*
X023713Y031980D01*
X023789Y032057D01*
X023789Y032440D01*
X023713Y032440D02*
X023866Y032440D01*
X024020Y032364D02*
X024096Y032440D01*
X024250Y032440D01*
X024327Y032364D01*
X024327Y032057D01*
X024250Y031980D01*
X024096Y031980D01*
X024020Y032057D01*
X024096Y032210D02*
X024327Y032210D01*
X024096Y032210D02*
X024020Y032287D01*
X024020Y032364D01*
X006698Y019187D02*
X006622Y019187D01*
X006468Y019033D01*
X006468Y018880D02*
X006468Y019187D01*
X006315Y019110D02*
X006238Y019187D01*
X006084Y019187D01*
X006008Y019110D01*
X006008Y018957D01*
X006084Y018880D01*
X006238Y018880D01*
X006315Y018957D01*
X006315Y019110D01*
X005854Y019187D02*
X005701Y019187D01*
X005778Y019264D02*
X005778Y018957D01*
X005854Y018880D01*
X005547Y018957D02*
X005547Y019110D01*
X005471Y019187D01*
X005317Y019187D01*
X005240Y019110D01*
X005240Y018957D01*
X005317Y018880D01*
X005471Y018880D01*
X005547Y018957D01*
X005087Y018880D02*
X005087Y019110D01*
X005010Y019187D01*
X004933Y019110D01*
X004933Y018880D01*
X004780Y018880D02*
X004780Y019187D01*
X004857Y019187D01*
X004933Y019110D01*
D14*
X006791Y013384D02*
X006791Y011758D01*
X010729Y011758D02*
X010729Y013384D01*
X034191Y013151D02*
X034191Y011969D01*
X034585Y011576D01*
X035373Y011576D01*
X036947Y011576D02*
X038129Y011576D01*
X038129Y013544D01*
X036947Y013544D01*
X035373Y013544D02*
X034585Y013544D01*
X034191Y013151D01*
X009729Y032576D02*
X009729Y034544D01*
X008547Y034544D01*
X006973Y034544D02*
X006185Y034544D01*
X005791Y034151D01*
X005791Y032969D01*
X006185Y032576D01*
X006973Y032576D01*
X008547Y032576D02*
X009729Y032576D01*
D15*
X039160Y032660D03*
X039160Y031660D03*
X039160Y030660D03*
X039160Y029660D03*
X039160Y028660D03*
X041160Y028660D03*
X041160Y029660D03*
X041160Y030660D03*
X039160Y033660D03*
X039160Y026560D03*
X039160Y025560D03*
X039160Y024560D03*
X039160Y023560D03*
X039160Y022560D03*
X041160Y022560D03*
X041160Y023560D03*
X041160Y024560D03*
X041160Y025560D03*
X041160Y026560D03*
X041160Y020560D03*
X041160Y019560D03*
X041160Y018560D03*
X039160Y018560D03*
X039160Y019560D03*
X039160Y020560D03*
X039160Y016660D03*
X039160Y015660D03*
D16*
X020330Y013220D03*
X015330Y013220D03*
X016590Y035900D03*
X011790Y035900D03*
D17*
X013560Y037210D03*
X018360Y037210D03*
X018560Y011910D03*
X013560Y011910D03*
X023560Y011910D03*
X028760Y011910D03*
D18*
X030485Y012160D03*
X027035Y012160D03*
X025285Y012160D03*
X021835Y012160D03*
X020285Y012160D03*
X016835Y012160D03*
X015285Y012160D03*
X011835Y012160D03*
X011835Y036960D03*
X015285Y036960D03*
X016635Y036960D03*
X020085Y036960D03*
D19*
X018860Y036960D03*
X017860Y036960D03*
X014060Y036960D03*
X013060Y036960D03*
X013060Y012160D03*
X014060Y012160D03*
X018060Y012160D03*
X019060Y012160D03*
X023060Y012160D03*
X024060Y012160D03*
X028260Y012160D03*
X029260Y012160D03*
M02*
