%
M48
M72
T01C0.0236
T02C0.0315
T03C0.0320
T04C0.0354
T05C0.0400
T06C0.0433
T07C0.0808
T08C0.0850
%
T01
X16160Y12360
X17360Y14160
X17760Y16960
X20360Y17560
X21160Y18960
X22760Y19160
X23560Y20160
X24760Y19360
X24960Y20160
X26560Y21560
X28360Y23160
X29160Y23760
X28560Y24360
X27160Y23960
X25760Y25760
X24560Y25360
X23160Y25560
X23760Y28760
X24560Y29160
X26960Y31360
X28760Y31360
X33960Y34360
X36560Y31960
X40560Y33360
X40560Y34360
X38760Y34960
X37360Y35160
X41560Y36960
X43160Y32360
X38360Y28160
X40160Y27160
X41160Y27760
X40160Y24160
X38560Y21560
X34560Y21960
X32360Y20560
X30760Y19760
X31160Y19160
X30560Y18760
X29360Y17760
X27360Y16960
X26360Y17760
X25360Y17760
X23960Y17760
X22760Y17760
X20960Y20360
X19360Y21560
X16560Y20360
X14360Y18760
X12160Y19560
X8160Y18960
X8360Y17760
X7360Y17560
X12160Y14360
X14560Y15160
X13960Y16360
X5960Y13160
X21760Y13960
X25560Y12760
X25960Y12360
X26160Y11760
X35560Y15960
X36560Y14560
X38760Y12760
X42760Y15160
X41360Y17560
X32360Y24360
X29160Y21960
X29560Y21360
X23760Y22160
X28360Y27360
X21360Y32160
X23360Y35160
X23760Y35960
X22560Y35960
X14760Y34160
X17760Y28960
X7560Y36760
T02
X16860Y34160
X17860Y34160
X18860Y34160
X19860Y34160
X20860Y34160
X21860Y34160
X21860Y33160
X20860Y33160
X19860Y33160
X18860Y33160
X17860Y33160
X16860Y33160
X23860Y33160
X24860Y33160
X25860Y33160
X26860Y33160
X27860Y33160
X28860Y33160
X29860Y33160
X30860Y33160
X30860Y34160
X29860Y34160
X28860Y34160
X27860Y34160
X26860Y34160
X25860Y34160
X24860Y34160
X23860Y34160
X23860Y16160
X23860Y15160
X22860Y15160
X22860Y16160
X21860Y16160
X21860Y15160
X20860Y15160
X20860Y16160
X19860Y16160
X19860Y15160
X18860Y15160
X17860Y15160
X17860Y16160
X18860Y16160
X16860Y16160
X16860Y15160
X25360Y15160
X25360Y16160
X26360Y16160
X26360Y15160
X27360Y15160
X27360Y16160
X28360Y16160
X28360Y15160
X29360Y15160
X29360Y16160
X30360Y16160
X31360Y16160
X31360Y15160
X30360Y15160
X32360Y15160
X32360Y16160
X33360Y16160
X33360Y15160
X34360Y15160
X34360Y16160
T03
X34760Y23160
X33760Y23160
X32760Y23160
X31760Y23160
X30760Y23160
X29760Y23160
X29760Y26160
X30760Y26160
X31760Y26160
X32760Y26160
X33760Y26160
X34760Y26160
X35760Y26160
X35760Y23160
T04
X10260Y14860
X9260Y14860
X8260Y14860
X7260Y14860
X7760Y12860
X8760Y12860
X9760Y12860
T05
X12560Y12760
X13560Y12760
X14560Y12760
X17560Y12760
X18560Y12760
X19560Y12760
X22560Y12760
X23560Y12760
X24560Y12760
X27760Y12760
X28760Y12760
X29760Y12760
X39160Y15660
X39160Y16660
X39160Y18560
X39160Y19560
X39160Y20560
X41160Y20560
X41160Y19560
X41160Y18560
X41160Y22560
X41160Y23560
X41160Y24560
X41160Y25560
X41160Y26560
X39160Y26560
X39160Y25560
X39160Y24560
X39160Y23560
X39160Y22560
X39160Y28660
X39160Y29660
X39160Y30660
X39160Y31660
X39160Y32660
X39160Y33660
X41160Y30660
X41160Y29660
X41160Y28660
X19360Y36360
X18360Y36360
X17360Y36360
X14560Y36360
X13560Y36360
X12560Y36360
T06
X13560Y20860
X13560Y17860
T07
X7760Y29160
X5760Y29160
T08
X5760Y24960
X7760Y24960
X7760Y20360
X5760Y20360
M30
